<?xml version="1.0" encoding="utf-8"?>
<!-- Generator: Adobe Illustrator 21.0.2, SVG Export Plug-In . SVG Version: 6.00 Build 0)  -->
<svg version="1.1" xmlns="http://www.w3.org/2000/svg" xmlns:xlink="http://www.w3.org/1999/xlink" x="0px" y="0px"
	 viewBox="0 0 455.9 102.6" style="enable-background:new 0 0 455.9 102.6;" xml:space="preserve">
<style type="text/css">
	.st0{display:none;}
	.st1{display:inline;fill:#010101;}
	.st2{font-family:'PlantagenetCherokee';}
	.st3{font-size:71.3px;}
	.st4{display:inline;fill:none;stroke:#FDFDFE;stroke-width:2;stroke-miterlimit:10;}
	.st5{letter-spacing:-4;}
	.st6{display:inline;fill:#010101;stroke:#FDFDFE;stroke-width:2;stroke-miterlimit:10;}
	.st7{font-size:45.85px;}
	.st8{fill:none;}
	.st9{fill:#820303;}
	.st10{font-family:'OCRAStd';}
	.st11{font-size:105px;}
</style>
<g id="Layer_1" class="st0">
	<title>logo</title>
	<text transform="matrix(1 0 0 1 20.21 72.24)" class="st1 st2 st3">H</text>
	<text transform="matrix(1 0 0 1 20.21 72.24)" class="st4 st2 st3">H</text>
	<text transform="matrix(1 0 0 1 79.32 72.24)" class="st1 st2 st3 st5">A</text>
	<text transform="matrix(1 0 0 1 79.32 72.24)" class="st4 st2 st3 st5">A</text>
	<text transform="matrix(1 0 0 1 125.95 72.24)" class="st1 st2 st3">TS CA</text>
	<text transform="matrix(1 0 0 1 125.95 72.24)" class="st4 st2 st3">TS CA</text>
	<text transform="matrix(1 0 0 1 366.87 72.24)" class="st1 st2 st3">P</text>
	<text transform="matrix(1 0 0 1 366.87 72.24)" class="st4 st2 st3">P</text>
	<text transform="matrix(1 0 0 1 408.3 72.24)" class="st1 st2 st3">S</text>
	<text transform="matrix(1 0 0 1 408.3 72.24)" class="st4 st2 st3">S</text>
	<path class="st6" d="M267.3,51.4c6.4-2,12.7-4.5,18.8-7.4c4.5-2.2,8.9-4.7,13.1-7.5c5-3.7,9.5-8.2,13.1-13.3
		c-0.7-1.2-7.9-12-21.1-12.6c-14.7-0.8-27.2,10.5-28,25.2C262.9,41.3,264.4,46.7,267.3,51.4z"/>
	<path class="st6" d="M300,37.5c5.2-3.8,9.8-8.3,13.7-13.5l16,0.8c-1.4,5.2-4.8,9.6-9.3,12.4C310.7,42.8,300.6,37.8,300,37.5z"/>
	<path class="st6" d="M38.7,2.3c-2.9-1-7.2-2-11.1-0.3c-5.6,2.5-5,8.2-10.8,16.4C9.2,29,1,29.4,1,35.5c0,2.8,2.6,5.6,7.5,11.4
		c2.9,3.5,6.2,6.6,9.8,9.5c7.4-3.5,14.2-8.2,20.3-13.8c6.6-6.2,12.1-13.5,16.3-21.5c-1.5-3-3.2-5.9-5.3-8.6
		C46.5,8.6,42.8,5.1,38.7,2.3z"/>
	<path class="st6" d="M52,8.6c-2,0-4.4,0.7-4.5,1.6c-0.2,1.4,5.2,1.6,7.2,4.4c3.9,5.4-5.4,19.2-14.7,28.2S16.1,60.4,11.3,56.7
		c-2.9-2.3-1.2-8.6-2.7-8.7c-1.2-0.1-3.7,4.1-3.1,8.2c0.6,3.3,2.7,6.1,5.6,7.7c13.2,6.4,56.7-40,50.3-50.1
		C60.3,11.9,56.4,8.6,52,8.6z"/>
	<text transform="matrix(1 0 0 1 222.66 62.71)" class="st1 st2 st7">&amp;</text>
	<text transform="matrix(1 0 0 1 222.66 62.71)" class="st4 st2 st7">&amp;</text>
</g>
<g id="Layer_2">
	<rect x="-0.8" y="7.9" class="st8" width="456.1" height="101.8"/>
	<text transform="matrix(1 0 0 1 -0.8302 85.3275)" class="st9 st10 st11">moview</text>
</g>
</svg>
